<?xml version="1.0"?>
<svg xmlns="http://www.w3.org/2000/svg" height="512px" viewBox="0 0 512 512" width="512px" class=""><g><path d="m512 256c0 141.386719-114.613281 256-256 256s-256-114.613281-256-256 114.613281-256 256-256 256 114.613281 256 256zm0 0" fill="#414952" data-original="#414952" class="" data-old_color="#414952" style="fill:#FAA667"/><path d="m512 256c0-11.203125-.726562-22.238281-2.121094-33.0625l-126.9375-126.9375-2.582031 43.078125-184.214844 5.5-48.578125-48.578125-2.75 50.109375-48.816406 1.457031 46.199219 46.199219-10.335938 188.242187-35.863281.933594 126.9375 126.9375c10.824219 1.394532 21.859375 2.121094 33.0625 2.121094 141.386719 0 256-114.613281 256-256zm0 0" fill="#333940" data-original="#333940" class="" data-old_color="#333940" style="fill:#FF9A4F"/><path d="m159.097656 163.316406h193.804688v185.367188h-193.804688zm0 0" fill="#fff" data-original="#FFF" class=""/><path d="m255.644531 163.316406h97.257813v185.367188h-97.257813zm0 0" fill="#f2f6fc" data-original="#F2F6FC" class=""/><path d="m174.875 184.984375h162.25v142.03125h-162.25zm0 0" fill="#4a7aff" data-original="#4A7AFF" class="" data-old_color="#4a7aff" style="fill:#FDBF00"/><path d="m255.644531 184.984375h81.480469v142.03125h-81.480469zm0 0" fill="#2864f0" data-original="#2864F0" class="active-path" data-old_color="#2864f0" style="fill:#DEA800"/><path d="m337.125 303.910156-57.054688-68.152344-39.964843 47.730469-23.011719-27.488281-42.21875 50.425781v20.589844h162.25zm0 0" fill="#65b1fc" data-original="#65B1FC" class="" data-old_color="#65b1fc" style="fill:#FF7058"/><path d="m337.125 303.910156-57.054688-68.152344-24.425781 29.175782v62.082031h81.480469zm0 0" fill="#4a98f7" data-original="#4A98F7" class="" data-old_color="#4a98f7" style="fill:#FF6045"/><path d="m221.074219 218.6875c0 11.539062-9.355469 20.894531-20.894531 20.894531-11.542969 0-20.898438-9.355469-20.898438-20.894531 0-11.542969 9.355469-20.898438 20.898438-20.898438 11.539062 0 20.894531 9.355469 20.894531 20.898438zm0 0" fill="#65b1fc" data-original="#65B1FC" class="" data-old_color="#65b1fc" style="fill:#FF7058"/><path d="m96 129.058594h320v18.507812h-320zm0 0" fill="#ffd400" data-original="#FFD400" class="" data-old_color="#ffd400" style="fill:#3E4959"/><path d="m255.644531 129.058594h160.355469v18.507812h-160.355469zm0 0" fill="#fdba12" data-original="#FDBA12" class="" data-old_color="#fdba12" style="fill:#282829"/><path d="m96 364.433594h320v18.507812h-320zm0 0" fill="#ffd400" data-original="#FFD400" class="" data-old_color="#ffd400" style="fill:#3E4959"/><path d="m255.644531 364.433594h160.355469v18.507812h-160.355469zm0 0" fill="#fdba12" data-original="#FDBA12" class="" data-old_color="#fdba12" style="fill:#282829"/><path d="m382.941406 96v320h-18.507812v-320zm0 0" fill="#fdba12" data-original="#FDBA12" class="" data-old_color="#fdba12" style="fill:#282829"/><path d="m147.566406 96v320h-18.507812v-320zm0 0" fill="#ffd400" data-original="#FFD400" class="" data-old_color="#ffd400" style="fill:#3E4959"/></g> </svg>
