<?xml version="1.0"?>
<svg xmlns="http://www.w3.org/2000/svg" height="512px" viewBox="0 0 512 512" width="512px" class=""><g><path d="m512 256c0 68.378906-26.628906 132.671875-74.980469 181.019531-48.347656 48.351563-112.640625 74.980469-181.019531 74.980469s-132.671875-26.628906-181.019531-74.980469c-48.351563-48.347656-74.980469-112.640625-74.980469-181.019531s26.628906-132.671875 74.980469-181.019531c48.347656-48.351563 112.640625-74.980469 181.019531-74.980469s132.671875 26.628906 181.019531 74.980469c48.351563 48.347656 74.980469 112.640625 74.980469 181.019531zm0 0" fill="#ffc473" data-original="#FFC473" class="" data-old_color="#ffc473" style="fill:#FAA667"/><path d="m511.816406 265.246094-136.949218-136.949219h-35.21875l-37-37.40625h-93.296876v37.40625l-72.21875 73.527344 13.042969 13v206.285156l90.414063 90.417969c5.113281.300781 10.246094.472656 15.410156.472656 68.378906 0 132.671875-26.628906 181.019531-74.980469 46.164063-46.164062 72.507813-106.859375 74.796875-171.773437zm0 0" fill="#ffaa20" data-original="#FFAA20" class="active-path" data-old_color="#ffaa20" style="fill:#FF9A4F"/><path d="m302.648438 90.890625v47.082031h-19.347657v-27.734375h-54.601562v27.734375h-19.347657v-47.082031zm0 0" fill="#00459f" data-original="#00459F" class="" data-old_color="#00459f" style="fill:#3C3E42"/><path d="m150.175781 182.472656h211.648438v238.636719h-211.648438zm0 0" fill="#00459f" data-original="#00459F" class="" data-old_color="#00459f" style="fill:#3C3E42"/><path d="m283.300781 110.238281h-27.300781v-19.347656h46.648438v47.082031h-19.347657zm0 0" fill="#002d6b" data-original="#002D6B" class="" data-old_color="#002d6b" style="fill:#282829"/><path d="m256 182.472656h105.824219v238.636719h-105.824219zm0 0" fill="#002d6b" data-original="#002D6B" class="" data-old_color="#002d6b" style="fill:#282829"/><path d="m137.132812 128.296875h237.734376v73.527344h-237.734376zm0 0" fill="#84caff" data-original="#84CAFF" class="" data-old_color="#84caff" style="fill:#777A7C"/><g fill="#aeadb3"><path d="m199.886719 253.421875h19.351562v118.671875h-19.351562zm0 0" data-original="#000000" class=""/><path d="m246.324219 253.421875h19.351562v118.671875h-19.351562zm0 0" data-original="#000000" class=""/><path d="m292.761719 253.421875h19.351562v118.671875h-19.351562zm0 0" data-original="#000000" class=""/></g><path d="m256 253.421875h9.675781v118.671875h-9.675781zm0 0" fill="#78777f" data-original="#78777F" class=""/><path d="m292.761719 253.421875h19.351562v118.671875h-19.351562zm0 0" fill="#78777f" data-original="#78777F" class=""/><path d="m256 128.296875h118.867188v73.527344h-118.867188zm0 0" fill="#00a6ff" data-original="#00A6FF" class="" style="fill:#4F4F54" data-old_color="#00a6ff"/></g> </svg>
