<?xml version="1.0"?>
<svg xmlns="http://www.w3.org/2000/svg" height="512px" viewBox="0 0 512 512" width="512px" class=""><g><path d="m512 256c0 141.386719-114.613281 256-256 256s-256-114.613281-256-256 114.613281-256 256-256 256 114.613281 256 256zm0 0" fill="#ff637b" data-original="#FF637B" class="" data-old_color="#ff637b" style="fill:#FAA667"/><path d="m366.871094 124.347656-37.066406 37.0625 30.265624 30.269532-33.480468 33.480468-141.125-141.125-64.472656 3.957032-16.15625 16.160156 72.503906 72.507812.160156 192.839844-38.320312 43.066406 98.792968 98.792969c5.957032.414063 11.964844.640625 18.027344.640625 136.976562 0 248.824219-107.578125 255.667969-242.855469zm0 0" fill="#e63950" data-original="#E63950" class="" data-old_color="#e63950" style="fill:#FF9A4F"/><path d="m366.859375 124.3125v112.203125h-141.09375v-112.203125h60.46875l10.078125 20.15625 10.078125-20.15625zm0 0" fill="#fdbf00" data-original="#FDBF00" class=""/><path d="m366.859375 124.3125v112.203125h-70.546875v-92.046875l10.078125-20.15625zm0 0" fill="#ff9100" data-original="#FF9100" class=""/><path d="m205.609375 226.4375h181.40625v151.171875h-181.40625zm0 0" fill="#ffda2d" data-original="#FFDA2D" class=""/><path d="m296.3125 226.4375h90.703125v151.171875h-90.703125zm0 0" fill="#fdbf00" data-original="#FDBF00" class=""/><path d="m185.453125 337.296875h-20.15625v-233.140625h-60.46875v-20.15625h80.625zm0 0" fill="#575f64" data-original="#575F64" class=""/><path d="m343.679688 310.085938-14.109376 14.109374-23.179687-22.980468v46.160156h-20.15625v-46.160156l-23.179687 22.980468-14.109376-14.109374 47.367188-47.570313zm0 0" fill="#8c4a37" data-original="#8C4A37" class="" data-old_color="#8c4a37" style="fill:#8A716A"/><path d="m343.679688 310.085938-14.109376 14.109374-23.179687-22.980468v46.160156h-10.078125v-84.859375zm0 0" fill="#663325" data-original="#663325" class="" data-old_color="#663325" style="fill:#3D3A39"/><path d="m286.234375 124.3125h20.15625v40.3125h-20.15625zm0 0" fill="#8c4a37" data-original="#8C4A37" class="" data-old_color="#8c4a37" style="fill:#8A716A"/><path d="m296.3125 124.3125h10.078125v40.3125h-10.078125zm0 0" fill="#663325" data-original="#663325" class="" data-old_color="#663325" style="fill:#3D3A39"/><path d="m215.6875 367.53125h191.484375v20.15625h-191.484375zm0 0" fill="#575f64" data-original="#575F64" class=""/><path d="m296.3125 367.53125h110.859375v20.15625h-110.859375zm0 0" fill="#32393f" data-original="#32393F" class=""/><path d="m175.375 428c-27.785156 0-50.390625-22.605469-50.390625-50.390625s22.605469-50.390625 50.390625-50.390625 50.390625 22.605469 50.390625 50.390625-22.605469 50.390625-50.390625 50.390625zm0 0" fill="#575f64" data-original="#575F64" class=""/><path d="m175.375 347.375c-16.671875 0-30.234375 13.5625-30.234375 30.234375s13.5625 30.234375 30.234375 30.234375 30.234375-13.5625 30.234375-30.234375-13.5625-30.234375-30.234375-30.234375zm0 0" fill="#f2f2fc" data-original="#F2F2FC" class="active-path" style="fill:#FF9A4F" data-old_color="#f2f2fc"/><path d="m175.375 387.6875c-5.566406 0-10.078125-4.511719-10.078125-10.078125s4.511719-10.078125 10.078125-10.078125 10.078125 4.511719 10.078125 10.078125-4.511719 10.078125-10.078125 10.078125zm0 0" fill="#575f64" data-original="#575F64" class=""/></g> </svg>
